<svg viewBox="0 0 753.77 510.54" xmlns="http://www.w3.org/2000/svg" data-name="Capa 2" id="Capa_2">
  <defs>
    <style>
      .cls-1 {
        fill: #0878bd;
      }

      .cls-2 {
        fill: #5591cd;
      }

      .cls-3 {
        fill: #a795c7;
      }

      .cls-4 {
        fill: #00abc9;
      }

      .cls-5 {
        fill: #d30f4c;
      }

      .cls-6 {
        fill: #e6226d;
      }

      .cls-7 {
        fill: #ea5c73;
      }

      .cls-8 {
        fill: #7bba58;
      }

      .cls-9 {
        fill: #0092be;
      }

      .cls-10 {
        fill: #fff;
      }

      .cls-11 {
        fill: #e2003d;
      }

      .cls-12 {
        fill: #ffe405;
      }

      .cls-13 {
        fill: #dddc23;
      }

      .cls-14 {
        fill: #009883;
      }

      .cls-15 {
        fill: #8878b5;
      }

      .cls-16 {
        fill: #999;
      }
    </style>
  </defs>
  <g data-name="Capa 1" id="Capa_1-2">
    <g>
      <g>
        <g>
          <path d="M165.72,153.87c0-16.89,2.81-33.11,7.96-48.28-7.56-1.17-15.3-1.78-23.19-1.78C67.38,103.82,0,171.2,0,254.3s67.38,150.48,150.49,150.48c45.17,0,85.65-19.92,113.24-51.42-13.73-20.46-22.54-44.48-24.82-70.37-43.85-26.3-73.19-74.28-73.19-129.12Z" class="cls-6"></path>
          <path d="M493.19,161.33c27.48-29.47,66.62-47.92,110.1-47.92,50.67,0,95.45,25.06,122.72,63.43,1.51-8.57,2.34-17.35,2.34-26.36C728.35,67.38,660.98,0,577.87,0c-56.77,0-106.17,31.44-131.81,77.83,10.98,18.7,18.03,39.96,20.02,62.69,9.82,5.9,18.91,12.9,27.11,20.81Z" class="cls-8"></path>
          <path d="M726.01,176.84c-12.48,70.54-74.03,124.13-148.14,124.13-14.16,0-27.85-2-40.84-5.65-5.06,29.43-18.65,55.94-38.16,76.88,27.05,26.1,63.85,42.18,104.41,42.18,83.11,0,150.49-67.38,150.49-150.49,0-32.45-10.3-62.47-27.77-87.04Z" class="cls-11"></path>
          <path d="M603.28,113.41c-43.47,0-82.61,18.46-110.1,47.92,28.39,27.38,46.08,65.77,46.08,108.31,0,8.75-.79,17.32-2.23,25.67,12.99,3.65,26.68,5.65,40.84,5.65,74.11,0,135.66-53.59,148.14-124.13-27.27-38.37-72.06-63.43-122.72-63.43Z" class="cls-5"></path>
          <path d="M452.8,263.88c0-8.99.84-17.79,2.34-26.35-2.53-3.57-4.91-7.23-7.13-11.02-25.64,46.4-75.05,77.83-131.81,77.83-7.89,0-15.63-.61-23.19-1.78-6.39,18.9-16.43,36.11-29.29,50.8,27.01,40.25,72.94,66.77,125.06,66.77,43.47,0,82.61-18.46,110.09-47.94-28.4-27.37-46.07-65.77-46.07-108.31Z" class="cls-4"></path>
          <path d="M238.91,282.99c2.28,25.9,11.09,49.91,24.82,70.37,12.86-14.69,22.9-31.9,29.29-50.8-19.53-3.02-37.81-9.8-54.11-19.58Z" class="cls-3"></path>
          <path d="M493.19,161.33c-19.36,20.77-32.89,47.02-38.05,76.2-1.51,8.56-2.34,17.35-2.34,26.35,0,42.55,17.67,80.94,46.07,108.31,19.51-20.94,33.1-47.45,38.16-76.88,1.44-8.35,2.23-16.92,2.23-25.67,0-42.55-17.69-80.94-46.08-108.31Z" class="cls-2"></path>
          <path d="M275.54,170.59c27.59-31.5,68.08-51.42,113.24-51.42,14.16,0,27.83,1.99,40.82,5.65,2.89-16.77,8.52-32.59,16.46-46.98C419.93,33.3,371.56,3.37,316.2,3.37c-66.23,0-122.41,42.8-142.53,102.22,42.4,6.56,78.94,30.82,101.87,64.99Z" class="cls-12"></path>
          <path d="M275.54,170.59c-22.93-34.18-59.47-58.43-101.87-64.99-5.14,15.16-7.96,31.38-7.96,48.28,0,54.84,29.34,102.82,73.19,129.12-.39-4.4-.62-8.85-.62-13.34,0-37.95,14.08-72.59,37.25-99.06Z" class="cls-7"></path>
          <path d="M446.06,77.83c-7.94,14.38-13.57,30.21-16.46,46.98,12.95,3.65,25.2,8.95,36.48,15.72-1.99-22.73-9.04-43.99-20.02-62.69Z" class="cls-13"></path>
          <path d="M427.37,150.48c0-8.76.78-17.32,2.22-25.67-12.99-3.65-26.66-5.65-40.82-5.65-45.16,0-85.64,19.92-113.24,51.42,16.05,23.93,25.43,52.73,25.43,83.72,0,16.87-2.82,33.1-7.96,48.26,7.56,1.17,15.3,1.78,23.19,1.78,56.76,0,106.17-31.44,131.81-77.83-13.1-22.31-20.64-48.29-20.64-76.03Z" class="cls-9"></path>
          <path d="M275.54,170.59c-23.17,26.47-37.25,61.11-37.25,99.06,0,4.49.23,8.94.62,13.34,16.3,9.78,34.58,16.56,54.11,19.58,5.13-15.16,7.96-31.39,7.96-48.26,0-30.99-9.38-59.79-25.43-83.72Z" class="cls-15"></path>
          <path d="M466.08,140.52c-11.28-6.77-23.53-12.07-36.48-15.72-1.44,8.35-2.22,16.91-2.22,25.67,0,27.75,7.54,53.72,20.64,76.03,2.22,3.78,4.6,7.45,7.13,11.02,5.15-29.17,18.69-55.42,38.05-76.2-8.2-7.91-17.29-14.9-27.11-20.81Z" class="cls-14"></path>
          <path d="M537.03,295.32s-52.46-8.23-82.33-59.16l4.5-16.57s15.47-44.01,34.64-58.45c0,0,58.15,52.53,43.19,134.18Z" class="cls-1"></path>
        </g>
        <g>
          <path d="M114.75,336.26v-176.35h26.94v8.64c9.05-5.74,19.3-8.65,30.44-8.64h0c15.71-.04,29.51,5.65,40.58,16.74h0c11.12,11.03,16.84,24.79,16.8,40.46h0c.04,15.68-5.68,29.44-16.8,40.46h0c-11.07,11.1-24.87,16.79-40.58,16.74h0c-11.14.02-21.38-2.82-30.44-8.42h0v70.36h-26.94ZM150.27,195.32c-5.74,5.73-8.55,12.69-8.58,21.79h0c.03,9.11,2.84,16.07,8.59,21.79h0c5.79,5.68,12.79,8.47,21.85,8.5h0c9.31-.03,16.38-2.79,22.03-8.33h0c5.6-5.57,8.38-12.59,8.43-21.96h0c-.04-9.36-2.83-16.37-8.43-21.94h0c-5.66-5.56-12.72-8.31-22.03-8.35h0c-9.06.04-16.06,2.82-21.86,8.5h0Z" class="cls-10"></path>
          <path d="M297.48,274.31c-15.71.04-29.51-5.64-40.57-16.74h0c-11.12-11.02-16.83-24.79-16.8-40.46h0c-.03-15.67,5.68-29.43,16.8-40.46h0c11.06-11.09,24.86-16.79,40.57-16.74h0c15.71-.04,29.51,5.65,40.58,16.74h0c11.13,11.03,16.84,24.79,16.8,40.46h0c.04,15.68-5.67,29.44-16.8,40.46h0c-11.02,11.07-24.78,16.74-40.43,16.74h-.15ZM275.62,195.32c-5.75,5.73-8.56,12.69-8.59,21.79h0c.04,9.11,2.86,16.07,8.6,21.79h0c5.79,5.68,12.8,8.47,21.85,8.5h0c9.31-.03,16.37-2.79,22.04-8.33h0c5.6-5.57,8.39-12.59,8.43-21.96h0c-.04-9.36-2.83-16.37-8.43-21.94h0c-5.67-5.56-12.72-8.31-22.04-8.35h0c-9.05.04-16.07,2.82-21.86,8.5h0Z" class="cls-10"></path>
          <path d="M365.49,273.84V97.49h26.92v176.35h-26.92Z" class="cls-10"></path>
          <polygon points="408.85 274.31 408.85 184.6 435.78 184.6 435.78 270.67 435.78 274.31 408.85 274.31 408.85 274.31" class="cls-10"></polygon>
          <path d="M422.95,175.63c-5.13,0-9.59-1.28-12.75-4.35h0c-3.13-3.08-4.48-7.5-4.46-12.57h0c-.01-5.06,1.33-9.49,4.46-12.57h0c3.15-3.06,7.62-4.35,12.75-4.34h0c5.05-.01,9.45,1.27,12.54,4.36h0c3.08,3.09,4.38,7.5,4.38,12.54h0c0,5.05-1.29,9.45-4.38,12.54h0c-3.08,3.06-7.47,4.38-12.47,4.38h-.07Z" class="cls-10"></path>
          <path d="M517.65,157.61h3.62v26.91h-43.14v16.05c0,11.6,2.01,21.18,5.84,28.85h0c2.42,4.82,5.36,8.39,8.8,10.89h0c3.46,2.5,7.44,3.99,12.24,4.49h0c.95.09,1.87.14,2.72.14h0c1.58,0,2.98-.16,4.19-.45h0l3.2-.74,1.05,3.11c1.45,4.27,5.63,15.42,7.07,19.61h0l1.02,2.98-2.82,1.43c-5.81,2.95-12.13,4.43-18.76,4.41h-.11c-10.67,0-20.14-3.1-27.83-9.31h0c-7.7-6.22-13.56-15.37-17.76-27.18h0c-3.89-10.98-5.77-23.72-5.77-38.23h0v-102.6h26.91v59.64h39.52" class="cls-10"></path>
          <path d="M581.66,274.31c-15.73.04-29.52-5.64-40.59-16.74h0c-11.12-11.02-16.83-24.79-16.79-40.46h0c-.04-15.67,5.67-29.43,16.79-40.46h0c11.07-11.09,24.86-16.79,40.59-16.74h0c15.69-.04,29.49,5.65,40.55,16.74h0c11.12,11.03,16.84,24.79,16.81,40.46h0c.04,15.68-5.69,29.44-16.81,40.46h0c-11.03,11.07-24.76,16.74-40.4,16.74h-.16ZM559.79,195.32c-5.74,5.71-8.56,12.69-8.59,21.79h0c.03,9.11,2.85,16.07,8.59,21.79h0c5.79,5.68,12.8,8.47,21.87,8.5h0c9.3-.03,16.36-2.79,22.02-8.33h0c5.59-5.57,8.39-12.59,8.42-21.96h0c-.03-9.36-2.82-16.37-8.42-21.94h0c-5.66-5.56-12.72-8.31-22.02-8.35h0c-9.07.04-16.08,2.82-21.87,8.5h0Z" class="cls-10"></path>
        </g>
      </g>
      <g>
        <path d="M68.29,458.17l8.04-1.24,3.66,23.63c.89,5.71,4.95,8.38,10.02,7.59,5.18-.8,8.13-4.55,7.25-10.27l-3.66-23.64,8.04-1.24,3.57,23.04c1.61,10.42-4.51,18.07-14.04,19.55-9.65,1.5-17.69-3.96-19.3-14.38l-3.57-23.04Z" class="cls-16"></path>
        <path d="M143.64,487.84l-8.01.98-2.1-17.28c-.42-3.41-2.91-5.47-6.2-5.07-3.29.4-5.34,3.02-4.92,6.42l2.1,17.28-8.07.99-3.6-29.6,7.41-.9.33,2.69c1.84-2.35,4.73-3.97,8.26-4.4,6.88-.84,11.7,3.37,12.57,10.54l2.24,18.35Z" class="cls-16"></path>
        <path d="M215.9,482.45l-8.12.47-1.01-17.33c-.21-3.55-2.45-5.66-5.63-5.47-3.19.19-5.34,2.6-5.15,5.91l1.02,17.51-8.12.47-1.01-17.33c-.21-3.55-2.45-5.66-5.64-5.47-3.31.19-5.34,2.55-5.14,6.1l1.01,17.33-8.13.47-1.73-29.79,7.46-.43.15,2.65c1.86-2.22,4.8-3.6,8.23-3.8,3.91-.23,6.95,1.04,9.1,3.76,2.19-2.79,5.59-4.61,9.68-4.85,6.98-.41,11.53,4.1,11.95,11.32l1.08,18.48Z" class="cls-16"></path>
        <path d="M223.73,452.69h8.12v17.33c0,3.43,2.35,5.72,5.66,5.72,3.13,0,5.54-2.29,5.54-5.72v-17.33h8.12v16.67c0,8.3-5.9,13.84-13.66,13.84s-13.78-5.54-13.78-13.84v-16.67Z" class="cls-16"></path>
        <path d="M287.07,484.28l-8.06-.47,1.01-17.39c.2-3.43-1.89-5.91-5.2-6.1-3.31-.19-5.79,2.02-5.99,5.45l-1.01,17.39-8.13-.47,1.74-29.79,7.46.43-.16,2.71c2.23-1.98,5.37-3.07,8.92-2.86,6.92.4,10.92,5.41,10.5,12.63l-1.08,18.47Z" class="cls-16"></path>
        <path d="M329.43,443.31l-4.39,44.94-7.43-.72.36-3.66c-2.25,2.62-5.88,3.84-9.96,3.44-8.27-.81-13.73-7.99-12.86-16.92.87-8.93,7.63-14.92,15.9-14.11,3.77.37,6.59,1.85,8.52,4.4l1.77-18.16,8.09.79ZM311.84,463.73c-4.32-.42-7.99,2.55-8.47,7.4-.48,4.97,2.5,8.53,6.87,8.95,4.07.4,7.76-2.08,8.29-7.42.51-5.27-2.62-8.54-6.69-8.94Z" class="cls-16"></path>
        <path d="M350.64,459.59c8.71.5,15.65,8.18,14.87,16.63-.42,8.48-8.45,15.21-17.14,14.41-8.72-.44-15.53-8.23-14.74-16.68.42-8.48,8.32-15.16,17.02-14.36ZM350.11,466.98c-4.5-.32-7.93,2.87-8.27,7.62-.33,4.63,2.61,8.28,7.11,8.6,4.38.31,7.93-2.87,8.26-7.5.33-4.62-2.72-8.4-7.1-8.71Z" class="cls-16"></path>
        <path d="M422.21,449.31l-2.73,45.14-7.46-.45.22-3.67c-2.16,2.71-5.74,4.06-9.84,3.81-8.3-.5-14.04-7.49-13.5-16.46.54-8.97,7.08-15.21,15.39-14.71,3.79.23,6.67,1.61,8.69,4.09l1.1-18.23,8.13.49ZM405.35,470.4c-4.33-.26-7.91,2.84-8.2,7.72-.3,5,2.81,8.44,7.21,8.71,4.09.25,7.69-2.37,8.01-7.73.32-5.3-2.93-8.45-7.02-8.7Z" class="cls-16"></path>
        <path d="M436.02,483.3c.7,3.85,3.61,6.16,7.94,6.46,2.94.21,5.78-.62,8.5-2.42l2.98,5.76c-3.75,2.7-7.81,3.92-12.19,3.62-9.2-.45-15.97-8.11-15.2-16.68.42-8.6,8.06-15.25,16.63-14.47,8.23.57,13.57,7.03,13.04,14.78-.1,1.44-.38,2.93-.85,4.41l-20.83-1.44ZM449.92,478.53c.2-3.67-2.47-6.21-6.01-6.45-3.42-.24-6.35,1.91-7.5,5.52l13.51.94Z" class="cls-16"></path>
        <path d="M507.86,500.18l-7.46-.3.12-2.89c-2.26,2.14-5.44,3.39-9.23,3.24-6.32-.26-10.14-4.1-9.92-9.33.22-5.36,4.69-8.49,11.61-8.21l7.46.31.05-1.33c.14-3.31-1.71-5.31-5.32-5.46-3.07-.12-5.29,1.05-8.05,3.77l-4.01-5.17c3.6-3.95,8.01-5.82,13.25-5.61,7.76.32,12.57,5.04,12.24,13.28l-.73,17.69ZM500.2,488.35l-6.38-.26c-2.65-.11-4.19.85-4.28,2.84-.08,1.98,1.55,3.32,4.14,3.42,3.55.15,6.36-2.21,6.5-5.64v-.36Z" class="cls-16"></path>
        <path d="M518.11,455.13l8.12.07-.39,45.13-8.13-.07.39-45.13Z" class="cls-16"></path>
        <path d="M541.67,488.15c1.03,3.77,4.13,5.83,8.46,5.75,2.95-.05,5.7-1.12,8.25-3.15l3.47,5.48c-3.5,3.01-7.45,4.58-11.84,4.66-9.2.34-16.61-6.7-16.57-15.31-.33-8.6,6.7-15.88,15.31-15.86,8.24-.14,14.13,5.84,14.26,13.6.02,1.44-.13,2.95-.47,4.46l-20.88.36ZM555.11,482.2c-.12-3.67-2.99-5.97-6.54-5.91-3.43.06-6.16,2.45-7,6.14l13.54-.23Z" class="cls-16"></path>
        <path d="M598.96,468.37l1.37,26.48c.5,9.69-5.31,15.18-14.64,15.66-5.59.29-10.56-1.32-14.91-4.78l3.98-5.88c3.44,2.3,6.28,3.54,9.89,3.35,4.81-.25,7.82-2.82,7.58-7.45l-.08-1.62c-2.05,2.46-5.11,3.82-8.9,4.02-8.24.43-14.58-5.34-15.03-14.06-.46-8.85,5.38-15.06,13.5-15.48,4.27-.22,7.72,1.17,9.98,3.89l-.2-3.73,7.46-.39ZM583.76,475.43c-4.39.23-7.55,3.35-7.3,8.16.25,4.81,3.78,7.83,8.12,7.6,4.09-.21,7.37-3.34,7.1-8.46-.27-5.11-3.77-7.53-7.92-7.31Z" class="cls-16"></path>
        <path d="M626.78,473.28l-2.16.18c-4.86.41-7.76,3.32-7.33,8.42l1.25,14.83-8.11.68-2.51-29.72,7.45-.63.3,3.54c1.78-2.63,4.53-4.31,7.84-4.59,1.02-.08,1.87-.04,2.67.14l.6,7.15Z" class="cls-16"></path>
        <path d="M632.49,465.45l8.07-.91,3.35,29.6-8.07.91-3.34-29.6ZM634.21,448l9.68-1.09.16,1.43-5.15,11.79-5.86.66,1.16-12.79Z" class="cls-16"></path>
        <path d="M678.94,489.15l-7.38,1.14-.45-2.86c-1.8,2.53-4.68,4.38-8.43,4.96-6.25.97-10.74-2.05-11.54-7.23-.82-5.3,2.95-9.24,9.8-10.3l7.38-1.14-.2-1.31c-.51-3.27-2.71-4.88-6.28-4.33-3.04.47-4.99,2.05-7.17,5.26l-4.94-4.3c2.77-4.58,6.74-7.26,11.92-8.06,7.68-1.19,13.31,2.51,14.57,10.66l2.72,17.5ZM669.15,479.02l-6.31.98c-2.62.4-3.95,1.65-3.65,3.61.3,1.97,2.16,2.96,4.72,2.56,3.51-.54,5.81-3.4,5.29-6.8l-.05-.36Z" class="cls-16"></path>
      </g>
    </g>
  </g>
</svg>